<svg xmlns="http://www.w3.org/2000/svg" viewBox="0 0 32 32" id="error"><g data-name="36-404 error"><polygon fill="#afb4c8" points="20 25 22 31 10 31 12 25 20 25"></polygon><polygon fill="#e9edf5" points="31 21 31 25 20 25 12 25 1 25 1 21 31 21"></polygon><polygon fill="#cdd2e1" points="31 23 31 25 20 25 12 25 1 25 1 23 31 23"></polygon><rect width="30" height="20" x="1" y="1" fill="#19cffc"></rect><rect width="3" height="20" x="28" y="1" fill="#1ea1e3"></rect><rect width="3" height="20" x="1" y="1" fill="#80dbff"></rect><polyline fill="none" stroke="#000" stroke-linejoin="round" stroke-width="2" points="12 25 1 25 1 21 1 1 31 1 31 21 31 25 20 25"></polyline><line x1="22" x2="25" y1="31" y2="31" fill="none" stroke="#000" stroke-linejoin="round" stroke-width="2"></line><line x1="7" x2="10" y1="31" y2="31" fill="none" stroke="#000" stroke-linejoin="round" stroke-width="2"></line><polygon fill="none" stroke="#000" stroke-linejoin="round" stroke-width="2" points="22 31 10 31 12 25 20 25 22 31"></polygon><line x1="1" x2="31" y1="21" y2="21" fill="none" stroke="#000" stroke-linejoin="round" stroke-width="2"></line><polyline fill="none" stroke="#000" stroke-linejoin="round" stroke-width="2" points="6 8 6 12 9 12 11 12"></polyline><polyline fill="none" stroke="#000" stroke-linejoin="round" stroke-width="2" points="9 8 9 12 9 15"></polyline><polyline fill="none" stroke="#000" stroke-linejoin="round" stroke-width="2" points="21 8 21 12 24 12 26 12"></polyline><polyline fill="none" stroke="#000" stroke-linejoin="round" stroke-width="2" points="24 8 24 12 24 15"></polyline><rect width="5" height="5" x="13" y="9" fill="none" stroke="#000" stroke-linejoin="round" stroke-width="2"></rect></g></svg>